<?xml version="1.0" encoding="UTF-8"?>
<!-- Generated by Pixelmator Pro 3.7 -->
<svg width="512" height="512" viewBox="0 0 512 512" xmlns="http://www.w3.org/2000/svg">
    <g id="Group">
        <path id="Rounded-Rectangle" fill="#187eb8" fill-rule="evenodd" stroke="none" d="M 61 399.406494 C 61 422.755127 79.927795 441.682922 103.276428 441.682922 L 408.723572 441.682922 C 432.072205 441.682922 451 422.755127 451 399.406494 L 451 81.276428 C 451 57.927795 432.072205 39 408.723572 39 L 103.276428 39 C 79.927795 39 61 57.927795 61 81.276428 Z"/>
        <path id="path1" fill="#00a2ff" fill-rule="evenodd" stroke="none" d="M 104.333336 350.788635 C 104.333336 374.137238 123.261131 393.065033 146.609756 393.065033 L 366.447174 393.065033 C 389.795776 393.065033 408.723602 374.137238 408.723602 350.788635 L 408.723602 128.837402 C 408.723602 105.48877 389.795776 86.560974 366.447174 86.560974 L 146.609756 86.560974 C 123.261131 86.560974 104.333336 105.48877 104.333336 128.837402 Z"/>
        <path id="path2" fill="#187eb8" fill-rule="evenodd" stroke="none" d="M 341.081299 458.593506 C 341.081299 467.349243 348.17923 474.447144 356.934967 474.447144 L 392.869904 474.447144 C 401.625641 474.447144 408.723572 467.349243 408.723572 458.593506 L 408.723572 425.829285 C 408.723572 417.073547 401.625641 409.975616 392.869904 409.975616 L 356.934967 409.975616 C 348.17923 409.975616 341.081299 417.073547 341.081299 425.829285 Z"/>
        <path id="Rounded-Rectangle-copy" fill="#187eb8" fill-rule="evenodd" stroke="none" d="M 104.333336 458.593506 C 104.333336 467.349243 111.431259 474.447144 120.186989 474.447144 L 156.121948 474.447144 C 164.877686 474.447144 171.975601 467.349243 171.975601 458.593506 L 171.975601 425.829285 C 171.975601 417.073547 164.877686 409.975616 156.121948 409.975616 L 120.186989 409.975616 C 111.431259 409.975616 104.333336 417.073547 104.333336 425.829285 Z"/>
        <path id="Circle" fill="#187eb8" fill-rule="evenodd" stroke="none" d="M 351.650391 239.813019 C 351.650391 187.278595 309.062866 144.691071 256.528442 144.691071 C 203.994049 144.691071 161.406509 187.278595 161.406509 239.813019 C 161.406509 292.347412 203.994049 334.934937 256.528442 334.934937 C 309.062866 334.934937 351.650391 292.347412 351.650391 239.813019 Z"/>
        <path id="Pill" fill="#187eb8" fill-rule="evenodd" stroke="none" d="M 192.207657 260.951233 C 157.188141 260.951233 128.799164 251.487305 128.799164 239.813019 C 128.799164 228.138702 157.188141 218.674805 192.207657 218.674805 L 321.006134 218.674805 C 356.025665 218.674805 384.414642 228.138702 384.414642 239.813019 C 384.414642 251.487305 356.025665 260.951233 321.006134 260.951233 L 192.207657 260.951233 Z"/>
        <path id="Pill-copy" fill="#187eb8" fill-rule="evenodd" stroke="none" d="M 277.666656 304.13382 C 277.666656 339.15332 268.202759 367.542297 256.528442 367.542297 C 244.854156 367.542297 235.390244 339.15332 235.390244 304.13382 L 235.390244 175.335327 C 235.390244 140.315796 244.854156 111.926819 256.528442 111.926819 C 268.202759 111.926819 277.666656 140.315796 277.666656 175.335327 L 277.666656 304.13382 Z"/>
        <path id="Pill-copy-2" fill="#187eb8" fill-rule="evenodd" stroke="none" d="M 225.993744 300.241638 C 201.231216 325.004211 174.465179 338.38623 166.210205 330.131256 C 157.955231 321.876282 171.33728 295.110229 196.099808 270.347717 L 287.174103 179.273438 C 311.936615 154.510895 338.702667 141.128845 346.957642 149.38382 C 355.212616 157.638794 341.830566 184.404846 317.068054 209.167358 L 225.993744 300.241638 Z"/>
        <path id="Pill-copy-3" fill="#187eb8" fill-rule="evenodd" stroke="none" d="M 196.099808 209.27829 C 171.33728 184.515778 157.955231 157.749725 166.210205 149.494751 C 174.465179 141.239777 201.231216 154.621826 225.993744 179.384369 L 317.068054 270.458649 C 341.830566 295.221191 355.212616 321.987213 346.957642 330.242188 C 338.702667 338.497192 311.936615 325.115112 287.174103 300.3526 L 196.099808 209.27829 Z"/>
        <path id="path3" fill="#00a2ff" fill-rule="evenodd" stroke="none" d="M 319.943085 239.813019 C 319.943085 204.79007 291.551392 176.398376 256.528442 176.398376 C 221.505524 176.398376 193.113815 204.79007 193.113815 239.813019 C 193.113815 274.835938 221.505524 303.227661 256.528442 303.227661 C 291.551392 303.227661 319.943085 274.835938 319.943085 239.813019 Z"/>
        <path id="Triangle" fill="#187eb8" fill-rule="evenodd" stroke="none" visibility="hidden" d="M 303.032532 239.813019 L 230.105698 197.536591 L 230.105698 282.089417 Z"/>
        <path id="Path" fill="#187eb8" fill-rule="evenodd" stroke="none" d="M 219 252.859772 C 219 312.694183 304.965546 247.485687 307.928192 243.566711 L 309.203827 241.879333 C 309.475159 241.520416 309.623077 240.868225 309.623077 240.305084 L 309.623077 240.050171 C 309.623077 239.48703 309.475159 238.832031 309.203827 238.467957 L 307.928192 236.756378 C 304.965546 232.781158 219 165.940369 219 225.774811 Z"/>
        <path id="Path-copy" fill="#00a2ff" fill-rule="evenodd" stroke="none" d="M 227 249.986847 C 227 297.276428 294.942047 245.739502 297.283539 242.642181 L 298.291718 241.308594 C 298.506165 241.024933 298.623077 240.50946 298.623077 240.064392 L 298.623077 239.862915 C 298.623077 239.417847 298.506165 238.900177 298.291718 238.612457 L 297.283539 237.259705 C 294.942047 234.11792 227 181.290955 227 228.580536 Z"/>
    </g>
</svg>
